%TF.GenerationSoftware,KiCad,Pcbnew,10.0.1*%
%TF.CreationDate,2026-08-06T15:10:27-03:00*%
%TF.ProjectId,PCB_macropad,5043425f-6d61-4637-926f-7061642e6b69,rev?*%
%TF.SameCoordinates,Original*%
%TF.FileFunction,Plated,1,2,PTH,Drill*%
%TF.FilePolarity,Positive*%
%FSLAX46Y46*%
G04 Gerber Fmt 4.6, Leading zero omitted, Abs format (unit mm)*
G04 Created by KiCad (PCBNEW 10.0.1) date 2026-08-06 15:10:27*
%MOMM*%
%LPD*%
G01*
G04 APERTURE LIST*
%TA.AperFunction,ViaDrill*%
%ADD10C,0.800000*%
%TD*%
%TA.AperFunction,ComponentDrill*%
%ADD11C,0.800000*%
%TD*%
%TA.AperFunction,ComponentDrill*%
%ADD12C,1.000000*%
%TD*%
%TA.AperFunction,ComponentDrill*%
%ADD13C,1.500000*%
%TD*%
G04 APERTURE END LIST*
D10*
X111520000Y-96400000D03*
X111770000Y-79950000D03*
X119980000Y-96460000D03*
X130880000Y-79800000D03*
X138170000Y-96400000D03*
X143250000Y-96230000D03*
D11*
%TO.C,D1*%
X100246000Y-60970000D03*
%TO.C,D3*%
X100276000Y-99070000D03*
%TO.C,D2*%
X100316000Y-80020000D03*
%TO.C,D1*%
X107866000Y-60970000D03*
%TO.C,D3*%
X107896000Y-99070000D03*
%TO.C,D2*%
X107936000Y-80020000D03*
%TO.C,D4*%
X119336000Y-60970000D03*
%TO.C,D6*%
X119360000Y-99130000D03*
%TO.C,D5*%
X120180000Y-80000000D03*
%TO.C,D4*%
X126956000Y-60970000D03*
%TO.C,D6*%
X126980000Y-99130000D03*
%TO.C,D5*%
X127800000Y-80000000D03*
%TO.C,D7*%
X138356000Y-60970000D03*
%TO.C,D8*%
X138396000Y-80000000D03*
%TO.C,D9*%
X138460000Y-99130000D03*
%TO.C,D7*%
X145976000Y-60970000D03*
%TO.C,D8*%
X146016000Y-80000000D03*
%TO.C,D9*%
X146080000Y-99130000D03*
D12*
%TO.C,J1*%
X114980000Y-61560000D03*
X114980000Y-64100000D03*
X114980000Y-66640000D03*
X114980000Y-69180000D03*
X114980000Y-71720000D03*
X114980000Y-74260000D03*
X114980000Y-76800000D03*
X114980000Y-79340000D03*
X114980000Y-81880000D03*
X114980000Y-84420000D03*
X114980000Y-86960000D03*
X114980000Y-89500000D03*
X114980000Y-92040000D03*
X114980000Y-94580000D03*
X114980000Y-97120000D03*
X114980000Y-99660000D03*
X114980000Y-102200000D03*
X114980000Y-104740000D03*
X114980000Y-107280000D03*
X114980000Y-109820000D03*
%TO.C,J2*%
X133776000Y-61560000D03*
X133776000Y-64100000D03*
X133776000Y-66640000D03*
X133776000Y-69180000D03*
X133776000Y-71720000D03*
X133776000Y-74260000D03*
X133776000Y-76800000D03*
X133776000Y-79340000D03*
X133776000Y-81880000D03*
X133776000Y-84420000D03*
X133776000Y-86960000D03*
X133776000Y-89500000D03*
X133776000Y-92040000D03*
X133776000Y-94580000D03*
X133776000Y-97120000D03*
X133776000Y-99660000D03*
X133776000Y-102200000D03*
X133776000Y-104740000D03*
X133776000Y-107280000D03*
X133776000Y-109820000D03*
D13*
%TO.C,SW1*%
X101486000Y-66770000D03*
%TO.C,SW4*%
X101486000Y-85820000D03*
%TO.C,SW7*%
X101486000Y-104870000D03*
%TO.C,SW1*%
X107836000Y-64230000D03*
%TO.C,SW4*%
X107836000Y-83280000D03*
%TO.C,SW7*%
X107836000Y-102330000D03*
%TO.C,SW2*%
X120536000Y-66770000D03*
%TO.C,SW5*%
X120536000Y-85820000D03*
%TO.C,SW8*%
X120536000Y-104870000D03*
%TO.C,SW2*%
X126886000Y-64230000D03*
%TO.C,SW5*%
X126886000Y-83280000D03*
%TO.C,SW8*%
X126886000Y-102330000D03*
%TO.C,SW3*%
X139586000Y-66770000D03*
%TO.C,SW6*%
X139586000Y-85820000D03*
%TO.C,SW9*%
X139586000Y-104870000D03*
%TO.C,SW3*%
X145936000Y-64230000D03*
%TO.C,SW6*%
X145936000Y-83280000D03*
%TO.C,SW9*%
X145936000Y-102330000D03*
M02*
