%TF.GenerationSoftware,KiCad,Pcbnew,10.0.1*%
%TF.CreationDate,2026-08-06T15:10:29-03:00*%
%TF.ProjectId,PCB_macropad,5043425f-6d61-4637-926f-7061642e6b69,rev?*%
%TF.SameCoordinates,Original*%
%TF.FileFunction,Legend,Bot*%
%TF.FilePolarity,Positive*%
%FSLAX46Y46*%
G04 Gerber Fmt 4.6, Leading zero omitted, Abs format (unit mm)*
G04 Created by KiCad (PCBNEW 10.0.1) date 2026-08-06 15:10:29*
%MOMM*%
%LPD*%
G01*
G04 APERTURE LIST*
%ADD10C,0.150000*%
%ADD11C,0.120000*%
G04 APERTURE END LIST*
D10*
X134109333Y-58634819D02*
X134109333Y-59349104D01*
X134109333Y-59349104D02*
X134156952Y-59491961D01*
X134156952Y-59491961D02*
X134252190Y-59587200D01*
X134252190Y-59587200D02*
X134395047Y-59634819D01*
X134395047Y-59634819D02*
X134490285Y-59634819D01*
X133680761Y-58730057D02*
X133633142Y-58682438D01*
X133633142Y-58682438D02*
X133537904Y-58634819D01*
X133537904Y-58634819D02*
X133299809Y-58634819D01*
X133299809Y-58634819D02*
X133204571Y-58682438D01*
X133204571Y-58682438D02*
X133156952Y-58730057D01*
X133156952Y-58730057D02*
X133109333Y-58825295D01*
X133109333Y-58825295D02*
X133109333Y-58920533D01*
X133109333Y-58920533D02*
X133156952Y-59063390D01*
X133156952Y-59063390D02*
X133728380Y-59634819D01*
X133728380Y-59634819D02*
X133109333Y-59634819D01*
X115313333Y-58634819D02*
X115313333Y-59349104D01*
X115313333Y-59349104D02*
X115360952Y-59491961D01*
X115360952Y-59491961D02*
X115456190Y-59587200D01*
X115456190Y-59587200D02*
X115599047Y-59634819D01*
X115599047Y-59634819D02*
X115694285Y-59634819D01*
X114313333Y-59634819D02*
X114884761Y-59634819D01*
X114599047Y-59634819D02*
X114599047Y-58634819D01*
X114599047Y-58634819D02*
X114694285Y-58777676D01*
X114694285Y-58777676D02*
X114789523Y-58872914D01*
X114789523Y-58872914D02*
X114884761Y-58920533D01*
%TO.C,J2*%
D11*
X132396000Y-62830000D02*
X132396000Y-111200000D01*
X135156000Y-60180000D02*
X133776000Y-60180000D01*
X135156000Y-61560000D02*
X135156000Y-60180000D01*
X135156000Y-62830000D02*
X132396000Y-62830000D01*
X135156000Y-62830000D02*
X135156000Y-111200000D01*
X135156000Y-111200000D02*
X132396000Y-111200000D01*
%TO.C,J1*%
X113600000Y-62830000D02*
X113600000Y-111200000D01*
X116360000Y-60180000D02*
X114980000Y-60180000D01*
X116360000Y-61560000D02*
X116360000Y-60180000D01*
X116360000Y-62830000D02*
X113600000Y-62830000D01*
X116360000Y-62830000D02*
X116360000Y-111200000D01*
X116360000Y-111200000D02*
X113600000Y-111200000D01*
%TD*%
M02*
