%TF.GenerationSoftware,KiCad,Pcbnew,10.0.1*%
%TF.CreationDate,2026-07-30T21:46:07-03:00*%
%TF.ProjectId,PCB_macropad,5043425f-6d61-4637-926f-7061642e6b69,rev?*%
%TF.SameCoordinates,Original*%
%TF.FileFunction,Legend,Bot*%
%TF.FilePolarity,Positive*%
%FSLAX46Y46*%
G04 Gerber Fmt 4.6, Leading zero omitted, Abs format (unit mm)*
G04 Created by KiCad (PCBNEW 10.0.1) date 2026-07-30 21:46:07*
%MOMM*%
%LPD*%
G01*
G04 APERTURE LIST*
%ADD10C,0.150000*%
%ADD11C,0.120000*%
G04 APERTURE END LIST*
D10*
X134109333Y-58634819D02*
X134109333Y-59349104D01*
X134109333Y-59349104D02*
X134156952Y-59491961D01*
X134156952Y-59491961D02*
X134252190Y-59587200D01*
X134252190Y-59587200D02*
X134395047Y-59634819D01*
X134395047Y-59634819D02*
X134490285Y-59634819D01*
X133680761Y-58730057D02*
X133633142Y-58682438D01*
X133633142Y-58682438D02*
X133537904Y-58634819D01*
X133537904Y-58634819D02*
X133299809Y-58634819D01*
X133299809Y-58634819D02*
X133204571Y-58682438D01*
X133204571Y-58682438D02*
X133156952Y-58730057D01*
X133156952Y-58730057D02*
X133109333Y-58825295D01*
X133109333Y-58825295D02*
X133109333Y-58920533D01*
X133109333Y-58920533D02*
X133156952Y-59063390D01*
X133156952Y-59063390D02*
X133728380Y-59634819D01*
X133728380Y-59634819D02*
X133109333Y-59634819D01*
X115313333Y-58634819D02*
X115313333Y-59349104D01*
X115313333Y-59349104D02*
X115360952Y-59491961D01*
X115360952Y-59491961D02*
X115456190Y-59587200D01*
X115456190Y-59587200D02*
X115599047Y-59634819D01*
X115599047Y-59634819D02*
X115694285Y-59634819D01*
X114313333Y-59634819D02*
X114884761Y-59634819D01*
X114599047Y-59634819D02*
X114599047Y-58634819D01*
X114599047Y-58634819D02*
X114694285Y-58777676D01*
X114694285Y-58777676D02*
X114789523Y-58872914D01*
X114789523Y-58872914D02*
X114884761Y-58920533D01*
X123914094Y-82594819D02*
X123914094Y-81594819D01*
X123914094Y-81594819D02*
X123675999Y-81594819D01*
X123675999Y-81594819D02*
X123533142Y-81642438D01*
X123533142Y-81642438D02*
X123437904Y-81737676D01*
X123437904Y-81737676D02*
X123390285Y-81832914D01*
X123390285Y-81832914D02*
X123342666Y-82023390D01*
X123342666Y-82023390D02*
X123342666Y-82166247D01*
X123342666Y-82166247D02*
X123390285Y-82356723D01*
X123390285Y-82356723D02*
X123437904Y-82451961D01*
X123437904Y-82451961D02*
X123533142Y-82547200D01*
X123533142Y-82547200D02*
X123675999Y-82594819D01*
X123675999Y-82594819D02*
X123914094Y-82594819D01*
X122437904Y-81594819D02*
X122914094Y-81594819D01*
X122914094Y-81594819D02*
X122961713Y-82071009D01*
X122961713Y-82071009D02*
X122914094Y-82023390D01*
X122914094Y-82023390D02*
X122818856Y-81975771D01*
X122818856Y-81975771D02*
X122580761Y-81975771D01*
X122580761Y-81975771D02*
X122485523Y-82023390D01*
X122485523Y-82023390D02*
X122437904Y-82071009D01*
X122437904Y-82071009D02*
X122390285Y-82166247D01*
X122390285Y-82166247D02*
X122390285Y-82404342D01*
X122390285Y-82404342D02*
X122437904Y-82499580D01*
X122437904Y-82499580D02*
X122485523Y-82547200D01*
X122485523Y-82547200D02*
X122580761Y-82594819D01*
X122580761Y-82594819D02*
X122818856Y-82594819D01*
X122818856Y-82594819D02*
X122914094Y-82547200D01*
X122914094Y-82547200D02*
X122961713Y-82499580D01*
X119627904Y-82274819D02*
X119627904Y-81274819D01*
X119056476Y-82274819D02*
X119485047Y-81703390D01*
X119056476Y-81274819D02*
X119627904Y-81846247D01*
X142994094Y-101624819D02*
X142994094Y-100624819D01*
X142994094Y-100624819D02*
X142755999Y-100624819D01*
X142755999Y-100624819D02*
X142613142Y-100672438D01*
X142613142Y-100672438D02*
X142517904Y-100767676D01*
X142517904Y-100767676D02*
X142470285Y-100862914D01*
X142470285Y-100862914D02*
X142422666Y-101053390D01*
X142422666Y-101053390D02*
X142422666Y-101196247D01*
X142422666Y-101196247D02*
X142470285Y-101386723D01*
X142470285Y-101386723D02*
X142517904Y-101481961D01*
X142517904Y-101481961D02*
X142613142Y-101577200D01*
X142613142Y-101577200D02*
X142755999Y-101624819D01*
X142755999Y-101624819D02*
X142994094Y-101624819D01*
X141946475Y-101624819D02*
X141755999Y-101624819D01*
X141755999Y-101624819D02*
X141660761Y-101577200D01*
X141660761Y-101577200D02*
X141613142Y-101529580D01*
X141613142Y-101529580D02*
X141517904Y-101386723D01*
X141517904Y-101386723D02*
X141470285Y-101196247D01*
X141470285Y-101196247D02*
X141470285Y-100815295D01*
X141470285Y-100815295D02*
X141517904Y-100720057D01*
X141517904Y-100720057D02*
X141565523Y-100672438D01*
X141565523Y-100672438D02*
X141660761Y-100624819D01*
X141660761Y-100624819D02*
X141851237Y-100624819D01*
X141851237Y-100624819D02*
X141946475Y-100672438D01*
X141946475Y-100672438D02*
X141994094Y-100720057D01*
X141994094Y-100720057D02*
X142041713Y-100815295D01*
X142041713Y-100815295D02*
X142041713Y-101053390D01*
X142041713Y-101053390D02*
X141994094Y-101148628D01*
X141994094Y-101148628D02*
X141946475Y-101196247D01*
X141946475Y-101196247D02*
X141851237Y-101243866D01*
X141851237Y-101243866D02*
X141660761Y-101243866D01*
X141660761Y-101243866D02*
X141565523Y-101196247D01*
X141565523Y-101196247D02*
X141517904Y-101148628D01*
X141517904Y-101148628D02*
X141470285Y-101053390D01*
X138707904Y-101304819D02*
X138707904Y-100304819D01*
X138136476Y-101304819D02*
X138565047Y-100733390D01*
X138136476Y-100304819D02*
X138707904Y-100876247D01*
X123824094Y-101634819D02*
X123824094Y-100634819D01*
X123824094Y-100634819D02*
X123585999Y-100634819D01*
X123585999Y-100634819D02*
X123443142Y-100682438D01*
X123443142Y-100682438D02*
X123347904Y-100777676D01*
X123347904Y-100777676D02*
X123300285Y-100872914D01*
X123300285Y-100872914D02*
X123252666Y-101063390D01*
X123252666Y-101063390D02*
X123252666Y-101206247D01*
X123252666Y-101206247D02*
X123300285Y-101396723D01*
X123300285Y-101396723D02*
X123347904Y-101491961D01*
X123347904Y-101491961D02*
X123443142Y-101587200D01*
X123443142Y-101587200D02*
X123585999Y-101634819D01*
X123585999Y-101634819D02*
X123824094Y-101634819D01*
X122395523Y-100634819D02*
X122585999Y-100634819D01*
X122585999Y-100634819D02*
X122681237Y-100682438D01*
X122681237Y-100682438D02*
X122728856Y-100730057D01*
X122728856Y-100730057D02*
X122824094Y-100872914D01*
X122824094Y-100872914D02*
X122871713Y-101063390D01*
X122871713Y-101063390D02*
X122871713Y-101444342D01*
X122871713Y-101444342D02*
X122824094Y-101539580D01*
X122824094Y-101539580D02*
X122776475Y-101587200D01*
X122776475Y-101587200D02*
X122681237Y-101634819D01*
X122681237Y-101634819D02*
X122490761Y-101634819D01*
X122490761Y-101634819D02*
X122395523Y-101587200D01*
X122395523Y-101587200D02*
X122347904Y-101539580D01*
X122347904Y-101539580D02*
X122300285Y-101444342D01*
X122300285Y-101444342D02*
X122300285Y-101206247D01*
X122300285Y-101206247D02*
X122347904Y-101111009D01*
X122347904Y-101111009D02*
X122395523Y-101063390D01*
X122395523Y-101063390D02*
X122490761Y-101015771D01*
X122490761Y-101015771D02*
X122681237Y-101015771D01*
X122681237Y-101015771D02*
X122776475Y-101063390D01*
X122776475Y-101063390D02*
X122824094Y-101111009D01*
X122824094Y-101111009D02*
X122871713Y-101206247D01*
X119537904Y-101314819D02*
X119537904Y-100314819D01*
X118966476Y-101314819D02*
X119395047Y-100743390D01*
X118966476Y-100314819D02*
X119537904Y-100886247D01*
X142944094Y-82574819D02*
X142944094Y-81574819D01*
X142944094Y-81574819D02*
X142705999Y-81574819D01*
X142705999Y-81574819D02*
X142563142Y-81622438D01*
X142563142Y-81622438D02*
X142467904Y-81717676D01*
X142467904Y-81717676D02*
X142420285Y-81812914D01*
X142420285Y-81812914D02*
X142372666Y-82003390D01*
X142372666Y-82003390D02*
X142372666Y-82146247D01*
X142372666Y-82146247D02*
X142420285Y-82336723D01*
X142420285Y-82336723D02*
X142467904Y-82431961D01*
X142467904Y-82431961D02*
X142563142Y-82527200D01*
X142563142Y-82527200D02*
X142705999Y-82574819D01*
X142705999Y-82574819D02*
X142944094Y-82574819D01*
X141801237Y-82003390D02*
X141896475Y-81955771D01*
X141896475Y-81955771D02*
X141944094Y-81908152D01*
X141944094Y-81908152D02*
X141991713Y-81812914D01*
X141991713Y-81812914D02*
X141991713Y-81765295D01*
X141991713Y-81765295D02*
X141944094Y-81670057D01*
X141944094Y-81670057D02*
X141896475Y-81622438D01*
X141896475Y-81622438D02*
X141801237Y-81574819D01*
X141801237Y-81574819D02*
X141610761Y-81574819D01*
X141610761Y-81574819D02*
X141515523Y-81622438D01*
X141515523Y-81622438D02*
X141467904Y-81670057D01*
X141467904Y-81670057D02*
X141420285Y-81765295D01*
X141420285Y-81765295D02*
X141420285Y-81812914D01*
X141420285Y-81812914D02*
X141467904Y-81908152D01*
X141467904Y-81908152D02*
X141515523Y-81955771D01*
X141515523Y-81955771D02*
X141610761Y-82003390D01*
X141610761Y-82003390D02*
X141801237Y-82003390D01*
X141801237Y-82003390D02*
X141896475Y-82051009D01*
X141896475Y-82051009D02*
X141944094Y-82098628D01*
X141944094Y-82098628D02*
X141991713Y-82193866D01*
X141991713Y-82193866D02*
X141991713Y-82384342D01*
X141991713Y-82384342D02*
X141944094Y-82479580D01*
X141944094Y-82479580D02*
X141896475Y-82527200D01*
X141896475Y-82527200D02*
X141801237Y-82574819D01*
X141801237Y-82574819D02*
X141610761Y-82574819D01*
X141610761Y-82574819D02*
X141515523Y-82527200D01*
X141515523Y-82527200D02*
X141467904Y-82479580D01*
X141467904Y-82479580D02*
X141420285Y-82384342D01*
X141420285Y-82384342D02*
X141420285Y-82193866D01*
X141420285Y-82193866D02*
X141467904Y-82098628D01*
X141467904Y-82098628D02*
X141515523Y-82051009D01*
X141515523Y-82051009D02*
X141610761Y-82003390D01*
X138657904Y-82254819D02*
X138657904Y-81254819D01*
X138086476Y-82254819D02*
X138515047Y-81683390D01*
X138086476Y-81254819D02*
X138657904Y-81826247D01*
X104744094Y-101384819D02*
X104744094Y-100384819D01*
X104744094Y-100384819D02*
X104505999Y-100384819D01*
X104505999Y-100384819D02*
X104363142Y-100432438D01*
X104363142Y-100432438D02*
X104267904Y-100527676D01*
X104267904Y-100527676D02*
X104220285Y-100622914D01*
X104220285Y-100622914D02*
X104172666Y-100813390D01*
X104172666Y-100813390D02*
X104172666Y-100956247D01*
X104172666Y-100956247D02*
X104220285Y-101146723D01*
X104220285Y-101146723D02*
X104267904Y-101241961D01*
X104267904Y-101241961D02*
X104363142Y-101337200D01*
X104363142Y-101337200D02*
X104505999Y-101384819D01*
X104505999Y-101384819D02*
X104744094Y-101384819D01*
X103839332Y-100384819D02*
X103220285Y-100384819D01*
X103220285Y-100384819D02*
X103553618Y-100765771D01*
X103553618Y-100765771D02*
X103410761Y-100765771D01*
X103410761Y-100765771D02*
X103315523Y-100813390D01*
X103315523Y-100813390D02*
X103267904Y-100861009D01*
X103267904Y-100861009D02*
X103220285Y-100956247D01*
X103220285Y-100956247D02*
X103220285Y-101194342D01*
X103220285Y-101194342D02*
X103267904Y-101289580D01*
X103267904Y-101289580D02*
X103315523Y-101337200D01*
X103315523Y-101337200D02*
X103410761Y-101384819D01*
X103410761Y-101384819D02*
X103696475Y-101384819D01*
X103696475Y-101384819D02*
X103791713Y-101337200D01*
X103791713Y-101337200D02*
X103839332Y-101289580D01*
X100457904Y-101064819D02*
X100457904Y-100064819D01*
X99886476Y-101064819D02*
X100315047Y-100493390D01*
X99886476Y-100064819D02*
X100457904Y-100636247D01*
X123884094Y-63544819D02*
X123884094Y-62544819D01*
X123884094Y-62544819D02*
X123645999Y-62544819D01*
X123645999Y-62544819D02*
X123503142Y-62592438D01*
X123503142Y-62592438D02*
X123407904Y-62687676D01*
X123407904Y-62687676D02*
X123360285Y-62782914D01*
X123360285Y-62782914D02*
X123312666Y-62973390D01*
X123312666Y-62973390D02*
X123312666Y-63116247D01*
X123312666Y-63116247D02*
X123360285Y-63306723D01*
X123360285Y-63306723D02*
X123407904Y-63401961D01*
X123407904Y-63401961D02*
X123503142Y-63497200D01*
X123503142Y-63497200D02*
X123645999Y-63544819D01*
X123645999Y-63544819D02*
X123884094Y-63544819D01*
X122455523Y-62878152D02*
X122455523Y-63544819D01*
X122693618Y-62497200D02*
X122931713Y-63211485D01*
X122931713Y-63211485D02*
X122312666Y-63211485D01*
X119597904Y-63224819D02*
X119597904Y-62224819D01*
X119026476Y-63224819D02*
X119455047Y-62653390D01*
X119026476Y-62224819D02*
X119597904Y-62796247D01*
X142904094Y-63544819D02*
X142904094Y-62544819D01*
X142904094Y-62544819D02*
X142665999Y-62544819D01*
X142665999Y-62544819D02*
X142523142Y-62592438D01*
X142523142Y-62592438D02*
X142427904Y-62687676D01*
X142427904Y-62687676D02*
X142380285Y-62782914D01*
X142380285Y-62782914D02*
X142332666Y-62973390D01*
X142332666Y-62973390D02*
X142332666Y-63116247D01*
X142332666Y-63116247D02*
X142380285Y-63306723D01*
X142380285Y-63306723D02*
X142427904Y-63401961D01*
X142427904Y-63401961D02*
X142523142Y-63497200D01*
X142523142Y-63497200D02*
X142665999Y-63544819D01*
X142665999Y-63544819D02*
X142904094Y-63544819D01*
X141999332Y-62544819D02*
X141332666Y-62544819D01*
X141332666Y-62544819D02*
X141761237Y-63544819D01*
X138617904Y-63224819D02*
X138617904Y-62224819D01*
X138046476Y-63224819D02*
X138475047Y-62653390D01*
X138046476Y-62224819D02*
X138617904Y-62796247D01*
X104864094Y-82594819D02*
X104864094Y-81594819D01*
X104864094Y-81594819D02*
X104625999Y-81594819D01*
X104625999Y-81594819D02*
X104483142Y-81642438D01*
X104483142Y-81642438D02*
X104387904Y-81737676D01*
X104387904Y-81737676D02*
X104340285Y-81832914D01*
X104340285Y-81832914D02*
X104292666Y-82023390D01*
X104292666Y-82023390D02*
X104292666Y-82166247D01*
X104292666Y-82166247D02*
X104340285Y-82356723D01*
X104340285Y-82356723D02*
X104387904Y-82451961D01*
X104387904Y-82451961D02*
X104483142Y-82547200D01*
X104483142Y-82547200D02*
X104625999Y-82594819D01*
X104625999Y-82594819D02*
X104864094Y-82594819D01*
X103911713Y-81690057D02*
X103864094Y-81642438D01*
X103864094Y-81642438D02*
X103768856Y-81594819D01*
X103768856Y-81594819D02*
X103530761Y-81594819D01*
X103530761Y-81594819D02*
X103435523Y-81642438D01*
X103435523Y-81642438D02*
X103387904Y-81690057D01*
X103387904Y-81690057D02*
X103340285Y-81785295D01*
X103340285Y-81785295D02*
X103340285Y-81880533D01*
X103340285Y-81880533D02*
X103387904Y-82023390D01*
X103387904Y-82023390D02*
X103959332Y-82594819D01*
X103959332Y-82594819D02*
X103340285Y-82594819D01*
X100577904Y-82274819D02*
X100577904Y-81274819D01*
X100006476Y-82274819D02*
X100435047Y-81703390D01*
X100006476Y-81274819D02*
X100577904Y-81846247D01*
X104794094Y-63544819D02*
X104794094Y-62544819D01*
X104794094Y-62544819D02*
X104555999Y-62544819D01*
X104555999Y-62544819D02*
X104413142Y-62592438D01*
X104413142Y-62592438D02*
X104317904Y-62687676D01*
X104317904Y-62687676D02*
X104270285Y-62782914D01*
X104270285Y-62782914D02*
X104222666Y-62973390D01*
X104222666Y-62973390D02*
X104222666Y-63116247D01*
X104222666Y-63116247D02*
X104270285Y-63306723D01*
X104270285Y-63306723D02*
X104317904Y-63401961D01*
X104317904Y-63401961D02*
X104413142Y-63497200D01*
X104413142Y-63497200D02*
X104555999Y-63544819D01*
X104555999Y-63544819D02*
X104794094Y-63544819D01*
X103270285Y-63544819D02*
X103841713Y-63544819D01*
X103555999Y-63544819D02*
X103555999Y-62544819D01*
X103555999Y-62544819D02*
X103651237Y-62687676D01*
X103651237Y-62687676D02*
X103746475Y-62782914D01*
X103746475Y-62782914D02*
X103841713Y-62830533D01*
X100507904Y-63224819D02*
X100507904Y-62224819D01*
X99936476Y-63224819D02*
X100365047Y-62653390D01*
X99936476Y-62224819D02*
X100507904Y-62796247D01*
%TO.C,J2*%
D11*
X135156000Y-60180000D02*
X133776000Y-60180000D01*
X135156000Y-61560000D02*
X135156000Y-60180000D01*
X135156000Y-62830000D02*
X135156000Y-111200000D01*
X135156000Y-62830000D02*
X132396000Y-62830000D01*
X135156000Y-111200000D02*
X132396000Y-111200000D01*
X132396000Y-62830000D02*
X132396000Y-111200000D01*
%TO.C,J1*%
X116360000Y-60180000D02*
X114980000Y-60180000D01*
X116360000Y-61560000D02*
X116360000Y-60180000D01*
X116360000Y-62830000D02*
X116360000Y-111200000D01*
X116360000Y-62830000D02*
X113600000Y-62830000D01*
X116360000Y-111200000D02*
X113600000Y-111200000D01*
X113600000Y-62830000D02*
X113600000Y-111200000D01*
%TO.C,D5*%
X120406000Y-80020000D02*
X121056000Y-80020000D01*
X121656000Y-81140000D02*
X121656000Y-78900000D01*
X121776000Y-81140000D02*
X121776000Y-78900000D01*
X121896000Y-81140000D02*
X121896000Y-78900000D01*
X125946000Y-80020000D02*
X125296000Y-80020000D01*
X121056000Y-78900000D02*
X125296000Y-78900000D01*
X125296000Y-81140000D01*
X121056000Y-81140000D01*
X121056000Y-78900000D01*
%TO.C,D9*%
X139486000Y-99050000D02*
X140136000Y-99050000D01*
X140736000Y-100170000D02*
X140736000Y-97930000D01*
X140856000Y-100170000D02*
X140856000Y-97930000D01*
X140976000Y-100170000D02*
X140976000Y-97930000D01*
X145026000Y-99050000D02*
X144376000Y-99050000D01*
X140136000Y-97930000D02*
X144376000Y-97930000D01*
X144376000Y-100170000D01*
X140136000Y-100170000D01*
X140136000Y-97930000D01*
%TO.C,D6*%
X120316000Y-99060000D02*
X120966000Y-99060000D01*
X121566000Y-100180000D02*
X121566000Y-97940000D01*
X121686000Y-100180000D02*
X121686000Y-97940000D01*
X121806000Y-100180000D02*
X121806000Y-97940000D01*
X125856000Y-99060000D02*
X125206000Y-99060000D01*
X120966000Y-97940000D02*
X125206000Y-97940000D01*
X125206000Y-100180000D01*
X120966000Y-100180000D01*
X120966000Y-97940000D01*
%TO.C,D8*%
X139436000Y-80000000D02*
X140086000Y-80000000D01*
X140686000Y-81120000D02*
X140686000Y-78880000D01*
X140806000Y-81120000D02*
X140806000Y-78880000D01*
X140926000Y-81120000D02*
X140926000Y-78880000D01*
X144976000Y-80000000D02*
X144326000Y-80000000D01*
X140086000Y-78880000D02*
X144326000Y-78880000D01*
X144326000Y-81120000D01*
X140086000Y-81120000D01*
X140086000Y-78880000D01*
%TO.C,D3*%
X101316000Y-99070000D02*
X101966000Y-99070000D01*
X102566000Y-100190000D02*
X102566000Y-97950000D01*
X102686000Y-100190000D02*
X102686000Y-97950000D01*
X102806000Y-100190000D02*
X102806000Y-97950000D01*
X106856000Y-99070000D02*
X106206000Y-99070000D01*
X101966000Y-97950000D02*
X106206000Y-97950000D01*
X106206000Y-100190000D01*
X101966000Y-100190000D01*
X101966000Y-97950000D01*
%TO.C,D4*%
X120376000Y-60970000D02*
X121026000Y-60970000D01*
X121626000Y-62090000D02*
X121626000Y-59850000D01*
X121746000Y-62090000D02*
X121746000Y-59850000D01*
X121866000Y-62090000D02*
X121866000Y-59850000D01*
X125916000Y-60970000D02*
X125266000Y-60970000D01*
X121026000Y-59850000D02*
X125266000Y-59850000D01*
X125266000Y-62090000D01*
X121026000Y-62090000D01*
X121026000Y-59850000D01*
%TO.C,D7*%
X139396000Y-60970000D02*
X140046000Y-60970000D01*
X140646000Y-62090000D02*
X140646000Y-59850000D01*
X140766000Y-62090000D02*
X140766000Y-59850000D01*
X140886000Y-62090000D02*
X140886000Y-59850000D01*
X144936000Y-60970000D02*
X144286000Y-60970000D01*
X140046000Y-59850000D02*
X144286000Y-59850000D01*
X144286000Y-62090000D01*
X140046000Y-62090000D01*
X140046000Y-59850000D01*
%TO.C,D2*%
X101356000Y-80020000D02*
X102006000Y-80020000D01*
X102606000Y-81140000D02*
X102606000Y-78900000D01*
X102726000Y-81140000D02*
X102726000Y-78900000D01*
X102846000Y-81140000D02*
X102846000Y-78900000D01*
X106896000Y-80020000D02*
X106246000Y-80020000D01*
X102006000Y-78900000D02*
X106246000Y-78900000D01*
X106246000Y-81140000D01*
X102006000Y-81140000D01*
X102006000Y-78900000D01*
%TO.C,D1*%
X101286000Y-60970000D02*
X101936000Y-60970000D01*
X102536000Y-62090000D02*
X102536000Y-59850000D01*
X102656000Y-62090000D02*
X102656000Y-59850000D01*
X102776000Y-62090000D02*
X102776000Y-59850000D01*
X106826000Y-60970000D02*
X106176000Y-60970000D01*
X101936000Y-59850000D02*
X106176000Y-59850000D01*
X106176000Y-62090000D01*
X101936000Y-62090000D01*
X101936000Y-59850000D01*
%TD*%
M02*
